<?xml version="1.0" encoding="UTF-8" standalone="no"?>
<!-- Created with Inkscape (http://www.inkscape.org/) -->

<svg
   xmlns:dc="http://purl.org/dc/elements/1.1/"
   xmlns:cc="http://creativecommons.org/ns#"
   xmlns:rdf="http://www.w3.org/1999/02/22-rdf-syntax-ns#"
   xmlns:svg="http://www.w3.org/2000/svg"
   xmlns="http://www.w3.org/2000/svg"
   xmlns:sodipodi="http://sodipodi.sourceforge.net/DTD/sodipodi-0.dtd"
   xmlns:inkscape="http://www.inkscape.org/namespaces/inkscape"
   width="41.042454mm"
   height="41.042973mm"
   viewBox="0 0 41.042454 41.042973"
   version="1.1"
   id="svg2474"
   inkscape:version="0.92.4 (5da689c313, 2019-01-14)"
   sodipodi:docname="Suction.svg">
  <defs
     id="defs2468">
    <mask
       maskUnits="userSpaceOnUse"
       id="mask818">
      <circle
         style="opacity:1;fill:#ffffff;fill-opacity:1;stroke:#000000;stroke-width:0.76340497;stroke-linecap:square;stroke-linejoin:round;stroke-miterlimit:40;stroke-dasharray:none"
         id="circle820"
         cx="80.134605"
         cy="65.17363"
         r="23.97415" />
    </mask>
    <filter
       inkscape:collect="always"
       style="color-interpolation-filters:sRGB"
       id="filter1088"
       x="-0.11700914"
       width="1.2340183"
       y="-0.049272873"
       height="1.0985457">
      <feGaussianBlur
         inkscape:collect="always"
         stdDeviation="0.54136273"
         id="feGaussianBlur1090" />
    </filter>
  </defs>
  <sodipodi:namedview
     id="base"
     pagecolor="#ffffff"
     bordercolor="#666666"
     borderopacity="1.0"
     inkscape:pageopacity="0.0"
     inkscape:pageshadow="2"
     inkscape:zoom="1.882384"
     inkscape:cx="45.921397"
     inkscape:cy="129.01579"
     inkscape:document-units="mm"
     inkscape:current-layer="layer4"
     showgrid="false"
     inkscape:window-width="1920"
     inkscape:window-height="1017"
     inkscape:window-x="1912"
     inkscape:window-y="-8"
     inkscape:window-maximized="1"
     fit-margin-top="0"
     fit-margin-left="0"
     fit-margin-right="0"
     fit-margin-bottom="0"
     inkscape:snap-center="true"
     inkscape:snap-global="true"
     inkscape:snap-object-midpoints="true"
     inkscape:snap-bbox="true"
     inkscape:snap-bbox-midpoints="true" />
  <metadata
     id="metadata2471">
    <rdf:RDF>
      <cc:Work
         rdf:about="">
        <dc:format>image/svg+xml</dc:format>
        <dc:type
           rdf:resource="http://purl.org/dc/dcmitype/StillImage" />
        <dc:title></dc:title>
      </cc:Work>
    </rdf:RDF>
  </metadata>
  <g
     inkscape:label="Blueprint"
     inkscape:groupmode="layer"
     id="layer1"
     transform="translate(-43.0782,-93.721467)"
     style="display:inline" />
  <g
     inkscape:groupmode="layer"
     id="layer4"
     inkscape:label="fondo"
     style="display:inline"
     transform="translate(-7.0279947,-4.7185749)">
    <path
       style="opacity:1;fill:#000000;fill-opacity:1;stroke:none;stroke-width:7.44897985;stroke-linecap:square;stroke-linejoin:round;stroke-miterlimit:40;stroke-dasharray:none"
       d="m 104.12305,17.833984 a 77.561219,77.561219 0 0 0 -77.56055,77.5625 77.561219,77.561219 0 0 0 77.56055,77.560546 77.561219,77.561219 0 0 0 77.56054,-77.560546 77.561219,77.561219 0 0 0 -77.56054,-77.5625 z"
       id="path3032"
       inkscape:connector-curvature="0"
       transform="scale(0.26458333)"
       inkscape:export-xdpi="300.14883"
       inkscape:export-ydpi="300.14883" />
  </g>
  <g
     inkscape:groupmode="layer"
     id="layer5"
     inkscape:label="rango"
     style="display:inline"
     transform="translate(-7.0279947,-4.7185749)">
    <path
       style="opacity:1;fill:#ffffff;fill-opacity:1;stroke:none;stroke-width:11.31913853;stroke-linecap:square;stroke-linejoin:round;stroke-miterlimit:40;stroke-dasharray:none"
       d="m 104.12305,44.224609 a 59.900142,59.900142 0 0 0 -2.5293,0.126953 59.900146,59.900146 0 0 0 -3.652344,0.205079 59.900142,59.900142 0 0 0 -1.476562,0.222656 59.900146,59.900146 0 0 0 -4.490235,0.707031 59.900142,59.900142 0 0 0 -0.527343,0.134766 59.900146,59.900146 0 0 0 -4.027344,1.121094 59.804376,59.804376 0 0 0 -1.226563,0.341796 59.900146,59.900146 0 0 0 -2.054687,0.677735 59.900146,59.900146 0 0 0 -1.541016,0.634765 59.804376,59.804376 0 0 0 -2.90625,1.19336 59.900146,59.900146 0 0 0 -2.61914,1.265625 59.804376,59.804376 0 0 0 -2.666016,1.423828 59.900146,59.900146 0 0 0 -2.607422,1.599609 59.804376,59.804376 0 0 0 -2.347656,1.572266 59.900146,59.900146 0 0 0 -2.609375,1.982422 59.804376,59.804376 0 0 0 -2.023438,1.671875 59.900146,59.900146 0 0 0 -2.576171,2.402343 59.804376,59.804376 0 0 0 -1.634766,1.650391 59.900146,59.900146 0 0 0 -2.533203,2.880859 59.804376,59.804376 0 0 0 -1.273438,1.574219 59.900146,59.900146 0 0 0 -2.40625,3.363281 59.804376,59.804376 0 0 0 -0.941406,1.435547 59.900146,59.900146 0 0 0 -2.21875,3.869141 59.804376,59.804376 0 0 0 -0.638672,1.224609 59.900146,59.900146 0 0 0 -1.962891,4.386719 59.804376,59.804376 0 0 0 -0.380859,0.951172 59.900146,59.900146 0 0 0 -1.638672,4.935547 59.804376,59.804376 0 0 0 -0.167969,0.583984 59.900146,59.900146 0 0 0 -1.232421,5.490235 59.804376,59.804376 0 0 0 -0.03125,0.175781 59.900146,59.900146 0 0 0 -0.806641,6.072263 h 0.08594 a 59.804376,59.804376 0 0 0 -0.142579,4.02149 59.804376,59.804376 0 0 0 0.142579,2.83593 59.804381,59.804381 0 0 0 0.871093,7.8711 l 2.175781,-0.38477 c 0.0064,-0.001 0.01153,10e-4 0.01758,0 L 49.75,114.05273 58.630859,112.48633 63.875,111.5625 c 0.633725,-0.11174 1.153903,-0.51175 1.482422,-1.06836 0.328519,-0.5566 0.466596,-1.27076 0.335937,-2.01172 l -0.40625,-2.29687 c -0.130648,-0.74096 -0.502962,-1.36324 -1.001953,-1.77344 -0.49899,-0.4102 -1.124088,-0.60784 -1.757812,-0.49609 l -5.246094,0.92578 -4.314453,0.75976 a 51.230659,51.230659 0 0 1 -0.07422,-1.47851 51.230659,51.230659 0 0 1 0.201172,-4.02149 h 0.01367 a 51.226818,51.226818 0 0 1 0.546875,-4.162107 51.226818,51.226818 0 0 1 0.1875,-1.140625 51.226818,51.226818 0 0 1 0.878906,-3.748047 51.226818,51.226818 0 0 1 0.460938,-1.707031 51.226818,51.226818 0 0 1 0.21875,-0.71875 l 4.49414,1.816406 c 0.648121,0.261846 1.623791,-0.65167 2.1875,-2.046875 l 0.873047,-2.162109 c 0.563679,-1.395201 0.4958,-2.728392 -0.152344,-2.990234 l -4.513672,-1.824219 a 51.226818,51.226818 0 0 1 2.365235,-4.181641 51.226818,51.226818 0 0 1 0.322265,-0.511719 51.226818,51.226818 0 0 1 2.679688,-3.794921 51.226818,51.226818 0 0 1 0.322266,-0.414063 51.226818,51.226818 0 0 1 1.376953,-1.669922 l 7.425781,7.425781 c 0.767902,0.767906 2.242598,0.528876 3.306641,-0.535156 l 1.648437,-1.648437 c 1.064039,-1.064039 1.301105,-2.538732 0.533203,-3.306641 l -7.445312,-7.447266 a 51.226818,51.226818 0 0 1 0.701172,-0.58789 51.226818,51.226818 0 0 1 1.292968,-1.003906 51.226818,51.226818 0 0 1 2.88086,-2.111329 51.226818,51.226818 0 0 1 1.845703,-1.158203 A 51.226818,51.226818 0 0 1 80.4707,58.75 51.226818,51.226818 0 0 1 80.613278,58.67383 l 1.910157,4.5 c 0.273143,0.643431 1.608989,0.687599 2.99414,0.09961 l 2.146484,-0.910157 c 1.351866,-0.573834 2.200506,-1.524088 1.988282,-2.167969 -0.0053,-0.01587 0.02362,-0.03923 0.01758,-0.05469 l -1.890625,-4.451172 -0.01563,-0.03711 a 51.226818,51.226818 0 0 1 0.857422,-0.242188 51.178882,51.178882 0 0 1 2.699218,-0.722656 51.178882,51.178882 0 0 1 2.107422,-0.546875 51.226814,51.226814 0 0 0 -0.451172,0.103516 51.178882,51.178882 0 0 1 0.777344,-0.1875 51.178882,51.178882 0 0 0 -0.326172,0.08398 51.226814,51.226814 0 0 1 0.148438,-0.0332 51.226818,51.226818 0 0 1 1.660156,-0.292969 51.178882,51.178882 0 0 1 1.058594,-0.171875 51.178882,51.178882 0 0 1 1.435547,-0.222656 51.226814,51.226814 0 0 0 -0.335938,0.04297 51.178882,51.178882 0 0 1 1.427735,-0.212891 51.178882,51.178882 0 0 0 -1.091797,0.169922 51.226814,51.226814 0 0 1 1.574219,-0.199219 51.178882,51.178882 0 0 1 0.935538,-0.05664 v 10.515626 c 0,1.085972 1.21202,1.960937 2.7168,1.960937 h 2.33203 c 1.50478,0 2.7168,-0.874965 2.7168,-1.960937 v -10.541016 -0.01563 a 51.226814,51.226814 0 0 1 0.30469,0.03125 51.178882,51.178882 0 0 1 4.07812,0.554687 51.178882,51.178882 0 0 1 4.08203,0.8125 51.178882,51.178882 0 0 1 3.66602,1.033204 51.226814,51.226814 0 0 1 0.3457,0.09766 l -0.01,0.02539 -1.89649,4.462891 c -0.007,0.0155 0.0225,0.03882 0.0176,0.05469 -0.21222,0.643881 0.63642,1.594142 1.98828,2.167969 l 2.14649,0.910157 c 1.38514,0.587936 2.72103,0.543806 2.99414,-0.09961 l 1.91015,-4.5 a 51.226818,51.226818 0 0 1 0.14258,0.07617 51.226818,51.226818 0 0 1 2.92578,1.722656 51.226818,51.226818 0 0 1 1.84571,1.158203 51.226818,51.226818 0 0 1 2.88085,2.111329 51.226818,51.226818 0 0 1 1.29297,1.003906 51.226818,51.226818 0 0 1 0.70118,0.58789 l -7.44532,7.447266 c -0.7679,0.767906 -0.53084,2.242605 0.53321,3.306641 l 1.64843,1.648437 c 0.66503,0.665023 1.4901,1.008307 2.20313,0.984375 0.42782,-0.01436 0.81555,-0.161234 1.10351,-0.449219 l 7.42578,-7.425781 a 51.226818,51.226818 0 0 1 1.37696,1.669922 51.226818,51.226818 0 0 1 0.32226,0.414063 51.226818,51.226818 0 0 1 2.67969,3.794921 51.226818,51.226818 0 0 1 0.32227,0.511719 51.226818,51.226818 0 0 1 2.36523,4.181641 l -4.51367,1.824219 c -0.64812,0.261842 -0.71601,1.595033 -0.15234,2.990234 l 0.87304,2.162109 c 0.49325,1.220803 1.30104,2.073296 1.92969,2.091797 0.0898,0.0026 0.17682,-0.01211 0.25781,-0.04492 L 152.8457,88.625 a 51.226818,51.226818 0 0 1 0.21875,0.71875 51.226818,51.226818 0 0 1 0.46094,1.707031 51.226818,51.226818 0 0 1 0.87891,3.748047 51.226818,51.226818 0 0 1 0.1875,1.140625 51.226818,51.226818 0 0 1 0.54687,4.162107 h 0.0371 a 51.230659,51.230659 0 0 1 0.17774,4.02149 51.230659,51.230659 0 0 1 -0.0742,1.47851 l -4.31446,-0.75976 -5.24609,-0.92578 c -0.63372,-0.11175 -1.25882,0.0859 -1.75781,0.49609 -0.49899,0.4102 -0.87131,1.03248 -1.00196,1.77344 l -0.40625,2.29687 c -0.13065,0.74096 0.007,1.45512 0.33594,2.01172 0.32852,0.55661 0.8487,0.95662 1.48242,1.06836 l 5.24414,0.92383 8.88086,1.5664 2.22461,0.39258 c 0.006,10e-4 0.0112,-0.001 0.0176,0 l 2.17578,0.38477 a 59.804383,59.804383 0 0 0 0.8711,-7.8711 59.804376,59.804376 0 0 0 0.14257,-2.83593 59.804376,59.804376 0 0 0 -0.20117,-4.02149 h 0.14258 a 59.900146,59.900146 0 0 0 -1.12305,-7.800779 59.804376,59.804376 0 0 0 -0.043,-0.185547 59.900146,59.900146 0 0 0 -1.39843,-5.476562 59.804376,59.804376 0 0 0 -0.19922,-0.601563 59.900146,59.900146 0 0 0 -1.77735,-4.871093 59.804376,59.804376 0 0 0 -0.46289,-1.041016 59.900146,59.900146 0 0 0 -2.04492,-4.232422 59.804376,59.804376 0 0 0 -0.78711,-1.378906 59.900146,59.900146 0 0 0 -2.22656,-3.628906 59.804376,59.804376 0 0 0 -1.16602,-1.636719 59.900146,59.900146 0 0 0 -2.32421,-3.058594 59.804376,59.804376 0 0 0 -1.57032,-1.794922 59.900146,59.900146 0 0 0 -2.39648,-2.570312 59.804376,59.804376 0 0 0 -1.9375,-1.810547 59.900146,59.900146 0 0 0 -2.42188,-2.128906 59.804376,59.804376 0 0 0 -2.36914,-1.806641 59.900146,59.900146 0 0 0 -2.36914,-1.695313 59.804376,59.804376 0 0 0 -2.75,-1.693359 59.900146,59.900146 0 0 0 -2.33203,-1.337891 59.804376,59.804376 0 0 0 -3.08789,-1.498046 59.900146,59.900146 0 0 0 -2.53906,-1.136719 59.804376,59.804376 0 0 0 -1.51953,-0.589844 59.900146,59.900146 0 0 0 -0.91797,-0.357422 59.900142,59.900142 0 0 0 -2.24414,-0.693359 59.804376,59.804376 0 0 0 -2.2168,-0.685547 59.900142,59.900142 0 0 0 -2.8457,-0.769531 59.900146,59.900146 0 0 0 -0.52735,-0.134766 59.900142,59.900142 0 0 0 -4.49023,-0.707031 59.900146,59.900146 0 0 0 -1.47656,-0.222656 59.900142,59.900142 0 0 0 -3.65235,-0.205079 59.900146,59.900146 0 0 0 -2.52929,-0.126953 z"
       transform="scale(0.26458333)"
       id="path1054"
       inkscape:connector-curvature="0" />
    <path
       inkscape:connector-curvature="0"
       style="opacity:1;fill:#00ff00;fill-opacity:1;stroke:none;stroke-width:3.41946864;stroke-linecap:square;stroke-linejoin:round;stroke-miterlimit:40;stroke-dasharray:none"
       d="m 27.549282,11.701094 a 15.84858,15.84858 0 0 0 -0.66921,0.03359 15.848581,15.848581 0 0 0 -0.96635,0.05426 15.84858,15.84858 0 0 0 -0.390673,0.05891 15.848581,15.848581 0 0 0 -1.188042,0.187068 15.84858,15.84858 0 0 0 -0.139526,0.03566 15.848581,15.848581 0 0 0 -1.933732,0.566374 l 0.93431,2.107364 a 13.54108,13.54108 0 0 1 0.02894,-0.0098 l -0.0041,-0.0098 a 13.553763,13.553763 0 0 1 0.22686,-0.06408 13.54108,13.54108 0 0 1 4.101558,-0.652157 13.54108,13.54108 0 0 1 1.027327,0.05116 v -0.0041 a 13.553762,13.553762 0 0 1 0.08062,0.0083 13.54108,13.54108 0 0 1 2.15904,0.361735 13.54108,13.54108 0 0 1 0.969968,0.273368 13.553762,13.553762 0 0 1 0.09147,0.02584 l -0.0026,0.0067 a 13.54108,13.54108 0 0 1 0.02842,0.01033 l 0.93276,-2.102714 a 15.84858,15.84858 0 0 0 -1.933216,-0.568441 15.848581,15.848581 0 0 0 -0.139528,-0.03566 15.84858,15.84858 0 0 0 -1.18804,-0.187069 15.848581,15.848581 0 0 0 -0.390673,-0.05891 15.84858,15.84858 0 0 0 -0.966351,-0.05426 15.848581,15.848581 0 0 0 -0.669208,-0.03359 z"
       id="path855" />
  </g>
  <g
     inkscape:groupmode="layer"
     id="layer2"
     inkscape:label="leyenda"
     transform="translate(-43.0782,-93.721467)"
     style="display:inline">
    <g
       transform="translate(36.050205,89.002892)"
       style="display:inline"
       id="g898">
      <text
         id="text936"
         y="15.952808"
         x="12.564203"
         style="font-style:normal;font-weight:normal;font-size:4.82785654px;line-height:1.25;font-family:sans-serif;letter-spacing:0px;word-spacing:0px;fill:#ffffff;fill-opacity:1;stroke:none;stroke-width:0.12069642"
         xml:space="preserve"><tspan
           style="font-style:normal;font-variant:normal;font-weight:normal;font-stretch:normal;font-family:'MS 33558';-inkscape-font-specification:'MS 33558, ';fill:#ffffff;stroke-width:0.12069642"
           y="15.952808"
           x="12.564203"
           id="tspan934"
           sodipodi:role="line">4</tspan></text>
      <text
         xml:space="preserve"
         style="font-style:normal;font-weight:normal;font-size:4.82785654px;line-height:1.25;font-family:sans-serif;letter-spacing:0px;word-spacing:0px;fill:#ffffff;fill-opacity:1;stroke:none;stroke-width:0.12069642"
         x="39.50782"
         y="15.952808"
         id="text940"><tspan
           sodipodi:role="line"
           id="tspan938"
           x="39.50782"
           y="15.952808"
           style="font-style:normal;font-variant:normal;font-weight:normal;font-stretch:normal;font-family:'MS 33558';-inkscape-font-specification:'MS 33558, ';fill:#ffffff;stroke-width:0.12069642">6</tspan></text>
      <text
         id="text944"
         y="10.574329"
         x="25.72867"
         style="font-style:normal;font-weight:normal;font-size:4.82785654px;line-height:1.25;font-family:sans-serif;letter-spacing:0px;word-spacing:0px;fill:#ffffff;fill-opacity:1;stroke:none;stroke-width:0.12069642"
         xml:space="preserve"><tspan
           style="font-style:normal;font-variant:normal;font-weight:normal;font-stretch:normal;font-family:'MS 33558';-inkscape-font-specification:'MS 33558, ';fill:#ffffff;stroke-width:0.12069642"
           y="10.574329"
           x="25.72867"
           id="tspan942"
           sodipodi:role="line">5</tspan></text>
    </g>
    <path
       inkscape:connector-curvature="0"
       id="path936"
       style="font-style:normal;font-variant:normal;font-weight:normal;font-stretch:normal;font-size:10.58333302px;line-height:1.25;font-family:'MS 33558';-inkscape-font-specification:'MS 33558, ';letter-spacing:0px;word-spacing:0px;fill:#ffffff;fill-opacity:1;stroke:none;stroke-width:0.13595767"
       d="m 52.487111,123.23116 0.04584,0.0173 0.05159,0.0221 0.04584,0.0221 q 0.02007,0.0123 0.04299,0.0247 0.0258,0.01 0.04872,0.0221 0.567434,0.31986 0.702128,0.88578 0.05159,0.22143 0.02293,0.45518 -0.04584,0.33462 -0.27512,0.62004 -0.2264,0.28295 -0.5703,0.43796 -0.369692,0.16731 -0.765176,0.16731 -0.664872,0 -1.269562,-0.14517 -0.60469,-0.14763 -0.862614,-0.78489 -0.03439,-0.0812 -0.05159,-0.16731 -0.0172,-0.0861 -0.04013,-0.17222 -0.04299,-0.17716 0.100297,-0.31249 0.146157,-0.13533 0.361095,-0.10334 0.2264,0.0393 0.315242,0.24113 l 0.0086,0.0221 q 0.13756,0.53391 0.478593,0.63726 0.343899,0.10333 0.954321,0.0935 0.561702,0 0.770909,-0.45273 0.0917,-0.20176 0.02865,-0.41828 -0.06305,-0.21898 -0.249327,-0.36414 -0.0831,-0.0615 -0.217804,-0.11565 l -1.326881,-0.49948 -0.04299,-0.0197 q -0.650542,-0.29525 -0.808163,-0.83901 -0.192011,-0.62988 0.266522,-1.12935 0.461398,-0.50194 1.20938,-0.50194 l 0.31524,0.007 q 0.154755,0.0247 0.298047,0.0493 0.14329,0.0221 0.289448,0.0788 0.361094,0.14518 0.553105,0.3986 0.192011,0.25344 0.346764,0.54869 0.01433,0.027 0.0258,0.0639 0.03152,0.12057 -0.02865,0.21899 -0.0344,0.0615 -0.07164,0.0935 -0.03726,0.032 -0.06018,0.0443 -0.149024,0.0911 -0.326705,0.0541 -0.177681,-0.0345 -0.272254,-0.19684 -0.07451,-0.1427 -0.160486,-0.29034 -0.08311,-0.15009 -0.234998,-0.24849 -0.06305,-0.0394 -0.12323,-0.0566 -0.05732,-0.0197 -0.128962,-0.0418 l -0.186279,-0.027 -0.263657,-0.007 q -0.38402,0.004 -0.587493,0.28541 -0.137561,0.17962 -0.103174,0.40106 0.04013,0.27311 0.298046,0.4232 0.01141,0.007 0.0258,0.0172 0.01433,0.007 0.03152,0.0147 l 0.03152,0.0123 0.0344,0.0123 z" />
    <path
       inkscape:connector-curvature="0"
       id="path938"
       style="font-style:normal;font-variant:normal;font-weight:normal;font-stretch:normal;font-size:10.58333302px;line-height:1.25;font-family:'MS 33558';-inkscape-font-specification:'MS 33558, ';letter-spacing:0px;word-spacing:0px;fill:#ffffff;fill-opacity:1;stroke:none;stroke-width:0.13595767"
       d="m 57.527338,127.8789 v 0.0493 q -0.0086,0.12302 -0.01141,0.14762 -0.120365,0.75291 -0.719322,1.11215 -0.598959,0.35675 -1.27816,0.33461 -0.679202,-0.0247 -1.24377,-0.42566 -0.561702,-0.40105 -0.610422,-1.16872 v -0.0493 -3.03376 q 0,-0.0738 0.03152,-0.13287 0.137559,-0.25835 0.455665,-0.20421 0.320974,0.0541 0.320974,0.33708 v 3.03376 q 0.04299,0.5659 0.578896,0.84639 0.538776,0.28049 1.132003,-0.0247 0.266522,-0.13532 0.389752,-0.34938 0.126097,-0.21407 0.149023,-0.47241 v -3.03375 q 0,-0.0442 0.0057,-0.0665 0.06591,-0.30264 0.432741,-0.27312 0.366827,0.0295 0.366827,0.33956 z" />
    <path
       inkscape:connector-curvature="0"
       id="path940"
       style="font-style:normal;font-variant:normal;font-weight:normal;font-stretch:normal;font-size:10.58333302px;line-height:1.25;font-family:'MS 33558';-inkscape-font-specification:'MS 33558, ';letter-spacing:0px;word-spacing:0px;fill:#ffffff;fill-opacity:1;stroke:none;stroke-width:0.13595767"
       d="m 61.843921,129.88203 -0.0258,0.032 q -0.0086,0.01 -0.01433,0.0172 -0.0058,0.007 -0.01141,0.0147 -0.392618,0.45519 -1.031697,0.64956 -0.636215,0.19192 -1.255233,-0.0714 -0.719323,-0.30757 -1.057491,-1.04325 -0.335301,-0.73568 -0.289448,-1.52795 0.04872,-0.79473 0.48719,-1.45905 0.441338,-0.66433 1.27816,-0.83164 0.481459,-0.096 0.960051,0.0812 0.478595,0.17469 0.785237,0.49209 0.0029,0 0.01433,0.0173 0.131827,0.14762 0.05445,0.32477 -0.07739,0.1747 -0.283717,0.21899 -0.220668,0.0493 -0.406947,-0.11319 -0.384022,-0.38383 -0.739384,-0.36906 -0.355363,0.0147 -0.636214,0.25097 -0.280852,0.23619 -0.46713,0.60528 -0.186278,0.36905 -0.229266,0.69138 -0.05159,0.35923 0.0086,0.72338 0.06305,0.36169 0.26079,0.68155 0.3439,0.56098 0.86548,0.70369 0.524446,0.14025 1.0231,-0.43058 0.02293,-0.0247 0.05445,-0.0639 0.269386,-0.25589 0.567434,-0.0516 0.300912,0.20176 0.08884,0.45765 z" />
    <path
       inkscape:connector-curvature="0"
       id="path942"
       style="font-style:normal;font-variant:normal;font-weight:normal;font-stretch:normal;font-size:10.58333302px;line-height:1.25;font-family:'MS 33558';-inkscape-font-specification:'MS 33558, ';letter-spacing:0px;word-spacing:0px;fill:#ffffff;fill-opacity:1;stroke:none;stroke-width:0.13595767"
       d="m 63.951597,131.27111 v -4.00072 h -1.051759 q -0.401217,-0.027 -0.401217,-0.34447 0.0029,-0.31986 0.401217,-0.34938 h 2.908816 q 0.395484,0.027 0.395484,0.34938 0.0029,0.31987 -0.395484,0.34447 H 64.75976 v 4.00072 q -0.06591,0.34938 -0.424142,0.34446 -0.355363,-0.004 -0.384021,-0.34446 z" />
    <path
       inkscape:connector-curvature="0"
       id="path944"
       style="font-style:normal;font-variant:normal;font-weight:normal;font-stretch:normal;font-size:10.58333302px;line-height:1.25;font-family:'MS 33558';-inkscape-font-specification:'MS 33558, ';letter-spacing:0px;word-spacing:0px;fill:#ffffff;fill-opacity:1;stroke:none;stroke-width:0.13595767"
       d="m 67.874915,130.32984 q -0.06305,0.34692 -0.409813,0.34446 -0.343898,0 -0.404081,-0.34446 v -4.35011 q 0.06017,-0.34692 0.404081,-0.34692 0.346765,-0.003 0.409813,0.34692 z" />
    <path
       inkscape:connector-curvature="0"
       id="path946"
       style="font-style:normal;font-variant:normal;font-weight:normal;font-stretch:normal;font-size:10.58333302px;line-height:1.25;font-family:'MS 33558';-inkscape-font-specification:'MS 33558, ';letter-spacing:0px;word-spacing:0px;fill:#ffffff;fill-opacity:1;stroke:none;stroke-width:0.13595767"
       d="m 73.017421,125.81122 q 0.263657,0.68155 0.197742,1.41476 -0.06305,0.73322 -0.467129,1.33849 -0.255059,0.37645 -0.696397,0.63972 -0.441336,0.26328 -0.974381,0.18454 -0.868346,-0.1304 -1.329744,-0.77751 -0.461397,-0.6471 -0.530179,-1.43937 -0.06591,-0.79474 0.249326,-1.54763 0.318109,-0.7529 1.011638,-1.09491 0.338168,-0.16731 0.707861,-0.16731 0.704994,0 1.152063,0.45764 0.447069,0.45519 0.6792,0.99158 z m -1.808336,-0.75045 q -0.527313,0 -0.799566,0.48717 -0.269388,0.48717 -0.341033,0.83163 -0.05445,0.25097 -0.04013,0.60775 0.01433,0.35677 0.120364,0.70615 0.106027,0.34692 0.318107,0.62741 0.212071,0.27804 0.555972,0.36908 0.401216,0.10825 0.690663,-0.13533 0.292315,-0.24605 0.441338,-0.52162 0.151889,-0.28295 0.20634,-0.74306 0.05732,-0.46011 -0.0258,-0.91775 -0.08024,-0.46011 -0.318108,-0.82672 -0.237862,-0.36906 -0.676334,-0.46995 -0.05732,-0.0147 -0.131829,-0.0147 z" />
    <path
       inkscape:connector-curvature="0"
       id="path948"
       style="font-style:normal;font-variant:normal;font-weight:normal;font-stretch:normal;font-size:10.58333302px;line-height:1.25;font-family:'MS 33558';-inkscape-font-specification:'MS 33558, ';letter-spacing:0px;word-spacing:0px;fill:#ffffff;fill-opacity:1;stroke:none;stroke-width:0.13595767"
       d="m 77.426723,125.57352 q 0,0.25836 -0.292315,0.3297 -0.289449,0.0689 -0.449936,-0.14762 l -2.407295,-3.31425 v 3.13217 q -0.06306,0.34446 -0.406948,0.34446 -0.341033,0 -0.401215,-0.34446 v -4.34518 q 0.04299,-0.25589 0.303777,-0.33709 0.263656,-0.0812 0.438471,0.15256 l 2.407297,3.31916 v -3.13463 q 0.05445,-0.35185 0.415545,-0.34692 0.36396,0.003 0.392619,0.34692 z" />
  </g>
  <g
     inkscape:groupmode="layer"
     id="layer3"
     inkscape:label="aguja"
     transform="translate(-43.0782,-93.721467)"
     style="display:none">
    <g
       id="g1098"
       transform="matrix(0.48562902,-0.95310061,0.95310061,0.48562902,-76.72716,119.12346)">
      <path
         sodipodi:type="star"
         style="display:inline;opacity:1;fill:#e6e6e6;fill-opacity:1;stroke:none;stroke-width:2.64583325;stroke-linecap:square;stroke-linejoin:round;stroke-miterlimit:40;stroke-dasharray:none;filter:url(#filter1088)"
         id="path1074"
         sodipodi:sides="3"
         sodipodi:cx="27.549219"
         sodipodi:cy="25.240061"
         sodipodi:r1="7.8725858"
         sodipodi:r2="3.9362929"
         sodipodi:arg1="1.9649602"
         sodipodi:arg2="3.0121578"
         inkscape:flatsided="false"
         inkscape:rounded="0"
         inkscape:randomized="0"
         d="m 24.52586,32.508961 -0.880007,-6.760828 -0.880007,-6.760828 6.295053,2.618306 6.295052,2.618305 -5.415046,4.142523 z"
         inkscape:transform-center-x="0.002504004"
         inkscape:transform-center-y="3.1641753"
         transform="matrix(-0.4204871,-0.97733162,0.32087271,-1.2807426,67.105176,175.961)" />
      <g
         style="fill:#e6e6e6"
         inkscape:transform-center-y="5.3636964"
         inkscape:transform-center-x="-0.44985951"
         id="g1093">
        <path
           sodipodi:type="star"
           style="display:inline;opacity:1;fill:#e6e6e6;fill-opacity:1;stroke:none;stroke-width:2.64583325;stroke-linecap:square;stroke-linejoin:round;stroke-miterlimit:40;stroke-dasharray:none"
           id="path1071"
           sodipodi:sides="3"
           sodipodi:cx="27.549219"
           sodipodi:cy="25.240061"
           sodipodi:r1="7.8725858"
           sodipodi:r2="3.9362929"
           sodipodi:arg1="1.9649602"
           sodipodi:arg2="3.0121578"
           inkscape:flatsided="false"
           inkscape:rounded="0"
           inkscape:randomized="0"
           d="m 24.52586,32.508961 -0.880007,-6.760828 -0.880007,-6.760828 6.295053,2.618306 6.295052,2.618305 -5.415046,4.142523 z"
           inkscape:transform-center-x="0.0022491091"
           inkscape:transform-center-y="3.206865"
           transform="matrix(-0.37766546,-0.99051758,0.28819562,-1.2980221,66.729738,176.78911)" />
      </g>
    </g>
  </g>
</svg>
